# Tiled2Unity generated file. Do not modify by hand.
# Wavefront file for 'fazendamap_mesh_0002.obj'

# Vertices (Count = 424)
v -37 -22 0
v -38 -22 0
v -38 -21 0
v -37 -21 0
v -38 -22 0
v -39 -22 0
v -39 -21 0
v -38 -21 0
v -39 -22 0
v -40 -22 0
v -40 -21 0
v -39 -21 0
v -40 -22 0
v -41 -22 0
v -41 -21 0
v -40 -21 0
v -41 -22 0
v -42 -22 0
v -42 -21 0
v -41 -21 0
v -42 -22 0
v -43 -22 0
v -43 -21 0
v -42 -21 0
v -37 -23 0
v -38 -23 0
v -38 -22 0
v -37 -22 0
v -38 -23 0
v -39 -23 0
v -39 -22 0
v -38 -22 0
v -39 -23 0
v -40 -23 0
v -40 -22 0
v -39 -22 0
v -40 -23 0
v -41 -23 0
v -41 -22 0
v -40 -22 0
v -41 -23 0
v -42 -23 0
v -42 -22 0
v -41 -22 0
v -42 -23 0
v -43 -23 0
v -43 -22 0
v -42 -22 0
v -33 -24 0
v -34 -24 0
v -34 -23 0
v -33 -23 0
v -34 -24 0
v -35 -24 0
v -35 -23 0
v -34 -23 0
v -35 -24 0
v -36 -24 0
v -36 -23 0
v -35 -23 0
v -36 -24 0
v -37 -24 0
v -37 -23 0
v -36 -23 0
v -37 -24 0
v -38 -24 0
v -38 -23 0
v -37 -23 0
v -38 -24 0
v -39 -24 0
v -39 -23 0
v -38 -23 0
v -39 -24 0
v -40 -24 0
v -40 -23 0
v -39 -23 0
v -40 -24 0
v -41 -24 0
v -41 -23 0
v -40 -23 0
v -41 -24 0
v -42 -24 0
v -42 -23 0
v -41 -23 0
v -42 -24 0
v -43 -24 0
v -43 -23 0
v -42 -23 0
v -33 -25 0
v -34 -25 0
v -34 -24 0
v -33 -24 0
v -34 -25 0
v -35 -25 0
v -35 -24 0
v -34 -24 0
v -35 -25 0
v -36 -25 0
v -36 -24 0
v -35 -24 0
v -36 -25 0
v -37 -25 0
v -37 -24 0
v -36 -24 0
v -37 -25 0
v -38 -25 0
v -38 -24 0
v -37 -24 0
v -38 -25 0
v -39 -25 0
v -39 -24 0
v -38 -24 0
v -39 -25 0
v -40 -25 0
v -40 -24 0
v -39 -24 0
v -40 -25 0
v -41 -25 0
v -41 -24 0
v -40 -24 0
v -41 -25 0
v -42 -25 0
v -42 -24 0
v -41 -24 0
v -42 -25 0
v -43 -25 0
v -43 -24 0
v -42 -24 0
v -33 -26 0
v -34 -26 0
v -34 -25 0
v -33 -25 0
v -34 -26 0
v -35 -26 0
v -35 -25 0
v -34 -25 0
v -35 -26 0
v -36 -26 0
v -36 -25 0
v -35 -25 0
v -36 -26 0
v -37 -26 0
v -37 -25 0
v -36 -25 0
v -37 -26 0
v -38 -26 0
v -38 -25 0
v -37 -25 0
v -38 -26 0
v -39 -26 0
v -39 -25 0
v -38 -25 0
v -39 -26 0
v -40 -26 0
v -40 -25 0
v -39 -25 0
v -40 -26 0
v -41 -26 0
v -41 -25 0
v -40 -25 0
v -41 -26 0
v -42 -26 0
v -42 -25 0
v -41 -25 0
v -42 -26 0
v -43 -26 0
v -43 -25 0
v -42 -25 0
v -33 -27 0
v -34 -27 0
v -34 -26 0
v -33 -26 0
v -34 -27 0
v -35 -27 0
v -35 -26 0
v -34 -26 0
v -35 -27 0
v -36 -27 0
v -36 -26 0
v -35 -26 0
v -36 -27 0
v -37 -27 0
v -37 -26 0
v -36 -26 0
v -37 -27 0
v -38 -27 0
v -38 -26 0
v -37 -26 0
v -38 -27 0
v -39 -27 0
v -39 -26 0
v -38 -26 0
v -39 -27 0
v -40 -27 0
v -40 -26 0
v -39 -26 0
v -40 -27 0
v -41 -27 0
v -41 -26 0
v -40 -26 0
v -41 -27 0
v -42 -27 0
v -42 -26 0
v -41 -26 0
v -42 -27 0
v -43 -27 0
v -43 -26 0
v -42 -26 0
v -32 -28 0
v -33 -28 0
v -33 -27 0
v -32 -27 0
v -33 -28 0
v -34 -28 0
v -34 -27 0
v -33 -27 0
v -34 -28 0
v -35 -28 0
v -35 -27 0
v -34 -27 0
v -35 -28 0
v -36 -28 0
v -36 -27 0
v -35 -27 0
v -36 -28 0
v -37 -28 0
v -37 -27 0
v -36 -27 0
v -37 -28 0
v -38 -28 0
v -38 -27 0
v -37 -27 0
v -38 -28 0
v -39 -28 0
v -39 -27 0
v -38 -27 0
v -39 -28 0
v -40 -28 0
v -40 -27 0
v -39 -27 0
v -40 -28 0
v -41 -28 0
v -41 -27 0
v -40 -27 0
v -41 -28 0
v -42 -28 0
v -42 -27 0
v -41 -27 0
v -42 -28 0
v -43 -28 0
v -43 -27 0
v -42 -27 0
v -32 -29 0
v -33 -29 0
v -33 -28 0
v -32 -28 0
v -33 -29 0
v -34 -29 0
v -34 -28 0
v -33 -28 0
v -34 -29 0
v -35 -29 0
v -35 -28 0
v -34 -28 0
v -35 -29 0
v -36 -29 0
v -36 -28 0
v -35 -28 0
v -36 -29 0
v -37 -29 0
v -37 -28 0
v -36 -28 0
v -37 -29 0
v -38 -29 0
v -38 -28 0
v -37 -28 0
v -38 -29 0
v -39 -29 0
v -39 -28 0
v -38 -28 0
v -39 -29 0
v -40 -29 0
v -40 -28 0
v -39 -28 0
v -40 -29 0
v -41 -29 0
v -41 -28 0
v -40 -28 0
v -41 -29 0
v -42 -29 0
v -42 -28 0
v -41 -28 0
v -42 -29 0
v -43 -29 0
v -43 -28 0
v -42 -28 0
v -32 -30 0
v -33 -30 0
v -33 -29 0
v -32 -29 0
v -33 -30 0
v -34 -30 0
v -34 -29 0
v -33 -29 0
v -34 -30 0
v -35 -30 0
v -35 -29 0
v -34 -29 0
v -35 -30 0
v -36 -30 0
v -36 -29 0
v -35 -29 0
v -36 -30 0
v -37 -30 0
v -37 -29 0
v -36 -29 0
v -37 -30 0
v -38 -30 0
v -38 -29 0
v -37 -29 0
v -38 -30 0
v -39 -30 0
v -39 -29 0
v -38 -29 0
v -39 -30 0
v -40 -30 0
v -40 -29 0
v -39 -29 0
v -32 -31 0
v -33 -31 0
v -33 -30 0
v -32 -30 0
v -33 -31 0
v -34 -31 0
v -34 -30 0
v -33 -30 0
v -34 -31 0
v -35 -31 0
v -35 -30 0
v -34 -30 0
v -35 -31 0
v -36 -31 0
v -36 -30 0
v -35 -30 0
v -36 -31 0
v -37 -31 0
v -37 -30 0
v -36 -30 0
v -37 -31 0
v -38 -31 0
v -38 -30 0
v -37 -30 0
v -38 -31 0
v -39 -31 0
v -39 -30 0
v -38 -30 0
v -39 -31 0
v -40 -31 0
v -40 -30 0
v -39 -30 0
v -32 -32 0
v -33 -32 0
v -33 -31 0
v -32 -31 0
v -33 -32 0
v -34 -32 0
v -34 -31 0
v -33 -31 0
v -34 -32 0
v -35 -32 0
v -35 -31 0
v -34 -31 0
v -35 -32 0
v -36 -32 0
v -36 -31 0
v -35 -31 0
v -36 -32 0
v -37 -32 0
v -37 -31 0
v -36 -31 0
v -37 -32 0
v -38 -32 0
v -38 -31 0
v -37 -31 0
v -38 -32 0
v -39 -32 0
v -39 -31 0
v -38 -31 0
v -39 -32 0
v -40 -32 0
v -40 -31 0
v -39 -31 0
v -35 -33 0
v -36 -33 0
v -36 -32 0
v -35 -32 0
v -36 -33 0
v -37 -33 0
v -37 -32 0
v -36 -32 0
v -37 -33 0
v -38 -33 0
v -38 -32 0
v -37 -32 0
v -38 -33 0
v -39 -33 0
v -39 -32 0
v -38 -32 0
v -35 -34 0
v -36 -34 0
v -36 -33 0
v -35 -33 0
v -36 -34 0
v -37 -34 0
v -37 -33 0
v -36 -33 0
v -37 -34 0
v -38 -34 0
v -38 -33 0
v -37 -33 0
v -38 -34 0
v -39 -34 0
v -39 -33 0
v -38 -33 0

# Texture cooridinates (Count = 48)
vt 0.03512397 0.9695817
vt 0.05165289 0.9695817
vt 0.05165289 1
vt 0.03512397 1
vt 0.05268595 0.9695817
vt 0.06921487 0.9695817
vt 0.06921487 1
vt 0.05268595 1
vt 0.07024793 0.9695817
vt 0.08677686 0.9695817
vt 0.08677686 1
vt 0.07024793 1
vt 0.03512397 0.9372624
vt 0.05165289 0.9372624
vt 0.05165289 0.9676806
vt 0.03512397 0.9676806
vt 0.05268595 0.9372624
vt 0.06921487 0.9372624
vt 0.06921487 0.9676806
vt 0.05268595 0.9676806
vt 0.07024793 0.9372624
vt 0.08677686 0.9372624
vt 0.08677686 0.9676806
vt 0.07024793 0.9676806
vt 0.01756198 0.904943
vt 0.03409091 0.904943
vt 0.03409091 0.9353612
vt 0.01756198 0.9353612
vt 0 0.9372624
vt 0.01652892 0.9372624
vt 0.01652892 0.9676806
vt 0 0.9676806
vt 0.05268595 0.904943
vt 0.06921487 0.904943
vt 0.06921487 0.9353612
vt 0.05268595 0.9353612
vt 0.07024793 0.904943
vt 0.08677686 0.904943
vt 0.08677686 0.9353612
vt 0.07024793 0.9353612
vt 0.03512397 0.904943
vt 0.05165289 0.904943
vt 0.05165289 0.9353612
vt 0.03512397 0.9353612
vt 0.01756198 0.9372624
vt 0.03409091 0.9372624
vt 0.03409091 0.9676806
vt 0.01756198 0.9676806

# Normal
vn 0 0 -1

# Mesh description
g fazendamap_mesh_0002

# Faces
f 1/1/1 2/2/1 3/3/1 4/4/1
f 5/5/1 6/6/1 7/7/1 8/8/1
f 9/5/1 10/6/1 11/7/1 12/8/1
f 13/5/1 14/6/1 15/7/1 16/8/1
f 17/5/1 18/6/1 19/7/1 20/8/1
f 21/9/1 22/10/1 23/11/1 24/12/1
f 25/13/1 26/14/1 27/15/1 28/16/1
f 29/17/1 30/18/1 31/19/1 32/20/1
f 33/17/1 34/18/1 35/19/1 36/20/1
f 37/17/1 38/18/1 39/19/1 40/20/1
f 41/17/1 42/18/1 43/19/1 44/20/1
f 45/21/1 46/22/1 47/23/1 48/24/1
f 49/1/1 50/2/1 51/3/1 52/4/1
f 53/5/1 54/6/1 55/7/1 56/8/1
f 57/5/1 58/6/1 59/7/1 60/8/1
f 61/5/1 62/6/1 63/7/1 64/8/1
f 65/25/1 66/26/1 67/27/1 68/28/1
f 69/17/1 70/18/1 71/19/1 72/20/1
f 73/17/1 74/18/1 75/19/1 76/20/1
f 77/17/1 78/18/1 79/19/1 80/20/1
f 81/17/1 82/18/1 83/19/1 84/20/1
f 85/21/1 86/22/1 87/23/1 88/24/1
f 89/13/1 90/14/1 91/15/1 92/16/1
f 93/17/1 94/18/1 95/19/1 96/20/1
f 97/17/1 98/18/1 99/19/1 100/20/1
f 101/17/1 102/18/1 103/19/1 104/20/1
f 105/17/1 106/18/1 107/19/1 108/20/1
f 109/17/1 110/18/1 111/19/1 112/20/1
f 113/17/1 114/18/1 115/19/1 116/20/1
f 117/17/1 118/18/1 119/19/1 120/20/1
f 121/17/1 122/18/1 123/19/1 124/20/1
f 125/21/1 126/22/1 127/23/1 128/24/1
f 129/13/1 130/14/1 131/15/1 132/16/1
f 133/17/1 134/18/1 135/19/1 136/20/1
f 137/17/1 138/18/1 139/19/1 140/20/1
f 141/17/1 142/18/1 143/19/1 144/20/1
f 145/17/1 146/18/1 147/19/1 148/20/1
f 149/17/1 150/18/1 151/19/1 152/20/1
f 153/17/1 154/18/1 155/19/1 156/20/1
f 157/17/1 158/18/1 159/19/1 160/20/1
f 161/17/1 162/18/1 163/19/1 164/20/1
f 165/21/1 166/22/1 167/23/1 168/24/1
f 169/13/1 170/14/1 171/15/1 172/16/1
f 173/17/1 174/18/1 175/19/1 176/20/1
f 177/17/1 178/18/1 179/19/1 180/20/1
f 181/17/1 182/18/1 183/19/1 184/20/1
f 185/17/1 186/18/1 187/19/1 188/20/1
f 189/17/1 190/18/1 191/19/1 192/20/1
f 193/17/1 194/18/1 195/19/1 196/20/1
f 197/17/1 198/18/1 199/19/1 200/20/1
f 201/17/1 202/18/1 203/19/1 204/20/1
f 205/21/1 206/22/1 207/23/1 208/24/1
f 209/1/1 210/2/1 211/3/1 212/4/1
f 213/25/1 214/26/1 215/27/1 216/28/1
f 217/17/1 218/18/1 219/19/1 220/20/1
f 221/17/1 222/18/1 223/19/1 224/20/1
f 225/17/1 226/18/1 227/19/1 228/20/1
f 229/17/1 230/18/1 231/19/1 232/20/1
f 233/17/1 234/18/1 235/19/1 236/20/1
f 237/17/1 238/18/1 239/19/1 240/20/1
f 241/17/1 242/18/1 243/19/1 244/20/1
f 245/17/1 246/18/1 247/19/1 248/20/1
f 249/21/1 250/22/1 251/23/1 252/24/1
f 253/13/1 254/14/1 255/15/1 256/16/1
f 257/17/1 258/18/1 259/19/1 260/20/1
f 261/17/1 262/18/1 263/19/1 264/20/1
f 265/17/1 266/18/1 267/19/1 268/20/1
f 269/17/1 270/18/1 271/19/1 272/20/1
f 273/17/1 274/18/1 275/19/1 276/20/1
f 277/17/1 278/18/1 279/19/1 280/20/1
f 281/29/1 282/30/1 283/31/1 284/32/1
f 285/33/1 286/34/1 287/35/1 288/36/1
f 289/33/1 290/34/1 291/35/1 292/36/1
f 293/37/1 294/38/1 295/39/1 296/40/1
f 297/13/1 298/14/1 299/15/1 300/16/1
f 301/17/1 302/18/1 303/19/1 304/20/1
f 305/17/1 306/18/1 307/19/1 308/20/1
f 309/17/1 310/18/1 311/19/1 312/20/1
f 313/17/1 314/18/1 315/19/1 316/20/1
f 317/17/1 318/18/1 319/19/1 320/20/1
f 321/17/1 322/18/1 323/19/1 324/20/1
f 325/21/1 326/22/1 327/23/1 328/24/1
f 329/13/1 330/14/1 331/15/1 332/16/1
f 333/17/1 334/18/1 335/19/1 336/20/1
f 337/17/1 338/18/1 339/19/1 340/20/1
f 341/17/1 342/18/1 343/19/1 344/20/1
f 345/17/1 346/18/1 347/19/1 348/20/1
f 349/17/1 350/18/1 351/19/1 352/20/1
f 353/17/1 354/18/1 355/19/1 356/20/1
f 357/21/1 358/22/1 359/23/1 360/24/1
f 361/41/1 362/42/1 363/43/1 364/44/1
f 365/33/1 366/34/1 367/35/1 368/36/1
f 369/33/1 370/34/1 371/35/1 372/36/1
f 373/45/1 374/46/1 375/47/1 376/48/1
f 377/17/1 378/18/1 379/19/1 380/20/1
f 381/17/1 382/18/1 383/19/1 384/20/1
f 385/29/1 386/30/1 387/31/1 388/32/1
f 389/37/1 390/38/1 391/39/1 392/40/1
f 393/13/1 394/14/1 395/15/1 396/16/1
f 397/17/1 398/18/1 399/19/1 400/20/1
f 401/17/1 402/18/1 403/19/1 404/20/1
f 405/21/1 406/22/1 407/23/1 408/24/1
f 409/41/1 410/42/1 411/43/1 412/44/1
f 413/33/1 414/34/1 415/35/1 416/36/1
f 417/33/1 418/34/1 419/35/1 420/36/1
f 421/37/1 422/38/1 423/39/1 424/40/1

