# Tiled2Unity generated file. Do not modify by hand.
# Wavefront file for 'fazendamap_mesh_0006.obj'

# Vertices (Count = 64)
v -52 -30 0
v -53 -30 0
v -53 -29 0
v -52 -29 0
v -53 -30 0
v -54 -30 0
v -54 -29 0
v -53 -29 0
v -25 -31 0
v -26 -31 0
v -26 -30 0
v -25 -30 0
v -26 -31 0
v -27 -31 0
v -27 -30 0
v -26 -30 0
v -27 -31 0
v -28 -31 0
v -28 -30 0
v -27 -30 0
v -29 -32 0
v -30 -32 0
v -30 -31 0
v -29 -31 0
v -34 -36 0
v -35 -36 0
v -35 -35 0
v -34 -35 0
v -34 -37 0
v -35 -37 0
v -35 -36 0
v -34 -36 0
v -27 -38 0
v -28 -38 0
v -28 -37 0
v -27 -37 0
v -30 -39 0
v -31 -39 0
v -31 -38 0
v -30 -38 0
v -27 -46 0
v -28 -46 0
v -28 -45 0
v -27 -45 0
v -28 -46 0
v -29 -46 0
v -29 -45 0
v -28 -45 0
v -29 -46 0
v -30 -46 0
v -30 -45 0
v -29 -45 0
v -31 -46 0
v -32 -46 0
v -32 -45 0
v -31 -45 0
v -28 -47 0
v -29 -47 0
v -29 -46 0
v -28 -46 0
v -31 -47 0
v -32 -47 0
v -32 -46 0
v -31 -46 0

# Texture cooridinates (Count = 56)
vt 0.5268595 0.7756654
vt 0.5433884 0.7756654
vt 0.5433884 0.8060837
vt 0.5268595 0.8060837
vt 0.5444215 0.7756654
vt 0.5609504 0.7756654
vt 0.5609504 0.8060837
vt 0.5444215 0.8060837
vt 0.4566116 0.743346
vt 0.4731405 0.743346
vt 0.4731405 0.7737643
vt 0.4566116 0.7737643
vt 0.4917355 0.7110266
vt 0.5082645 0.7110266
vt 0.5082645 0.7414448
vt 0.4917355 0.7414448
vt 0.5092975 0.7110266
vt 0.5258265 0.7110266
vt 0.5258265 0.7414448
vt 0.5092975 0.7414448
vt 0.3863636 0.6463878
vt 0.4028926 0.6463878
vt 0.4028926 0.6768061
vt 0.3863636 0.6768061
vt 0.8078513 0.8079848
vt 0.8243802 0.8079848
vt 0.8243802 0.838403
vt 0.8078513 0.838403
vt 0.5795454 0.9372624
vt 0.5960744 0.9372624
vt 0.5960744 0.9676806
vt 0.5795454 0.9676806
vt 0.7727273 0.8079848
vt 0.7892562 0.8079848
vt 0.7892562 0.838403
vt 0.7727273 0.838403
vt 0.5795454 0.9695817
vt 0.5960744 0.9695817
vt 0.5960744 1
vt 0.5795454 1
vt 0.8956612 0.904943
vt 0.9121901 0.904943
vt 0.9121901 0.9353612
vt 0.8956612 0.9353612
vt 0.7727273 0.904943
vt 0.7892562 0.904943
vt 0.7892562 0.9353612
vt 0.7727273 0.9353612
vt 0.9307851 0.904943
vt 0.947314 0.904943
vt 0.947314 0.9353612
vt 0.9307851 0.9353612
vt 0.7727273 0.8726236
vt 0.7892562 0.8726236
vt 0.7892562 0.9030418
vt 0.7727273 0.9030418

# Normal
vn 0 0 -1

# Mesh description
g fazendamap_mesh_0006

# Faces
f 1/1/1 2/2/1 3/3/1 4/4/1
f 5/5/1 6/6/1 7/7/1 8/8/1
f 9/9/1 10/10/1 11/11/1 12/12/1
f 13/13/1 14/14/1 15/15/1 16/16/1
f 17/17/1 18/18/1 19/19/1 20/20/1
f 21/21/1 22/22/1 23/23/1 24/24/1
f 25/25/1 26/26/1 27/27/1 28/28/1
f 29/29/1 30/30/1 31/31/1 32/32/1
f 33/33/1 34/34/1 35/35/1 36/36/1
f 37/37/1 38/38/1 39/39/1 40/40/1
f 41/41/1 42/42/1 43/43/1 44/44/1
f 45/45/1 46/46/1 47/47/1 48/48/1
f 49/49/1 50/50/1 51/51/1 52/52/1
f 53/25/1 54/26/1 55/27/1 56/28/1
f 57/53/1 58/54/1 59/55/1 60/56/1
f 61/29/1 62/30/1 63/31/1 64/32/1

