# Tiled2Unity generated file. Do not modify by hand.
# Wavefront file for 'fazendamap_mesh_0005.obj'

# Vertices (Count = 364)
v -45 -15 0
v -46 -15 0
v -46 -14 0
v -45 -14 0
v -45 -16 0
v -46 -16 0
v -46 -15 0
v -45 -15 0
v -45 -17 0
v -46 -17 0
v -46 -16 0
v -45 -16 0
v -45 -18 0
v -46 -18 0
v -46 -17 0
v -45 -17 0
v -43 -19 0
v -44 -19 0
v -44 -18 0
v -43 -18 0
v -44 -19 0
v -45 -19 0
v -45 -18 0
v -44 -18 0
v -45 -19 0
v -46 -19 0
v -46 -18 0
v -45 -18 0
v -45 -20 0
v -46 -20 0
v -46 -19 0
v -45 -19 0
v -45 -21 0
v -46 -21 0
v -46 -20 0
v -45 -20 0
v -45 -22 0
v -46 -22 0
v -46 -21 0
v -45 -21 0
v -45 -23 0
v -46 -23 0
v -46 -22 0
v -45 -22 0
v -45 -24 0
v -46 -24 0
v -46 -23 0
v -45 -23 0
v -45 -25 0
v -46 -25 0
v -46 -24 0
v -45 -24 0
v -45 -26 0
v -46 -26 0
v -46 -25 0
v -45 -25 0
v -45 -27 0
v -46 -27 0
v -46 -26 0
v -45 -26 0
v -45 -28 0
v -46 -28 0
v -46 -27 0
v -45 -27 0
v -45 -29 0
v -46 -29 0
v -46 -28 0
v -45 -28 0
v -45 -30 0
v -46 -30 0
v -46 -29 0
v -45 -29 0
v -45 -31 0
v -46 -31 0
v -46 -30 0
v -45 -30 0
v -24 -32 0
v -25 -32 0
v -25 -31 0
v -24 -31 0
v -25 -32 0
v -26 -32 0
v -26 -31 0
v -25 -31 0
v -26 -32 0
v -27 -32 0
v -27 -31 0
v -26 -31 0
v -27 -32 0
v -28 -32 0
v -28 -31 0
v -27 -31 0
v -45 -32 0
v -46 -32 0
v -46 -31 0
v -45 -31 0
v -24 -33 0
v -25 -33 0
v -25 -32 0
v -24 -32 0
v -45 -33 0
v -46 -33 0
v -46 -32 0
v -45 -32 0
v -24 -34 0
v -25 -34 0
v -25 -33 0
v -24 -33 0
v -42 -34 0
v -43 -34 0
v -43 -33 0
v -42 -33 0
v -43 -34 0
v -44 -34 0
v -44 -33 0
v -43 -33 0
v -44 -34 0
v -45 -34 0
v -45 -33 0
v -44 -33 0
v -45 -34 0
v -46 -34 0
v -46 -33 0
v -45 -33 0
v -46 -34 0
v -47 -34 0
v -47 -33 0
v -46 -33 0
v -47 -34 0
v -48 -34 0
v -48 -33 0
v -47 -33 0
v -48 -34 0
v -49 -34 0
v -49 -33 0
v -48 -33 0
v -49 -34 0
v -50 -34 0
v -50 -33 0
v -49 -33 0
v -50 -34 0
v -51 -34 0
v -51 -33 0
v -50 -33 0
v -51 -34 0
v -52 -34 0
v -52 -33 0
v -51 -33 0
v -52 -34 0
v -53 -34 0
v -53 -33 0
v -52 -33 0
v -53 -34 0
v -54 -34 0
v -54 -33 0
v -53 -33 0
v -24 -35 0
v -25 -35 0
v -25 -34 0
v -24 -34 0
v -42 -35 0
v -43 -35 0
v -43 -34 0
v -42 -34 0
v -24 -36 0
v -25 -36 0
v -25 -35 0
v -24 -35 0
v -42 -36 0
v -43 -36 0
v -43 -35 0
v -42 -35 0
v -24 -37 0
v -25 -37 0
v -25 -36 0
v -24 -36 0
v -42 -37 0
v -43 -37 0
v -43 -36 0
v -42 -36 0
v -24 -38 0
v -25 -38 0
v -25 -37 0
v -24 -37 0
v -34 -38 0
v -35 -38 0
v -35 -37 0
v -34 -37 0
v -42 -38 0
v -43 -38 0
v -43 -37 0
v -42 -37 0
v -24 -39 0
v -25 -39 0
v -25 -38 0
v -24 -38 0
v -34 -39 0
v -35 -39 0
v -35 -38 0
v -34 -38 0
v -42 -39 0
v -43 -39 0
v -43 -38 0
v -42 -38 0
v -24 -40 0
v -25 -40 0
v -25 -39 0
v -24 -39 0
v -30 -40 0
v -31 -40 0
v -31 -39 0
v -30 -39 0
v -34 -40 0
v -35 -40 0
v -35 -39 0
v -34 -39 0
v -42 -40 0
v -43 -40 0
v -43 -39 0
v -42 -39 0
v -23 -41 0
v -24 -41 0
v -24 -40 0
v -23 -40 0
v -24 -41 0
v -25 -41 0
v -25 -40 0
v -24 -40 0
v -25 -41 0
v -26 -41 0
v -26 -40 0
v -25 -40 0
v -26 -41 0
v -27 -41 0
v -27 -40 0
v -26 -40 0
v -27 -41 0
v -28 -41 0
v -28 -40 0
v -27 -40 0
v -28 -41 0
v -29 -41 0
v -29 -40 0
v -28 -40 0
v -29 -41 0
v -30 -41 0
v -30 -40 0
v -29 -40 0
v -30 -41 0
v -31 -41 0
v -31 -40 0
v -30 -40 0
v -31 -41 0
v -32 -41 0
v -32 -40 0
v -31 -40 0
v -32 -41 0
v -33 -41 0
v -33 -40 0
v -32 -40 0
v -33 -41 0
v -34 -41 0
v -34 -40 0
v -33 -40 0
v -34 -41 0
v -35 -41 0
v -35 -40 0
v -34 -40 0
v -35 -41 0
v -36 -41 0
v -36 -40 0
v -35 -40 0
v -36 -41 0
v -37 -41 0
v -37 -40 0
v -36 -40 0
v -37 -41 0
v -38 -41 0
v -38 -40 0
v -37 -40 0
v -38 -41 0
v -39 -41 0
v -39 -40 0
v -38 -40 0
v -39 -41 0
v -40 -41 0
v -40 -40 0
v -39 -40 0
v -40 -41 0
v -41 -41 0
v -41 -40 0
v -40 -40 0
v -41 -41 0
v -42 -41 0
v -42 -40 0
v -41 -40 0
v -42 -41 0
v -43 -41 0
v -43 -40 0
v -42 -40 0
v -23 -42 0
v -24 -42 0
v -24 -41 0
v -23 -41 0
v -38 -42 0
v -39 -42 0
v -39 -41 0
v -38 -41 0
v -23 -43 0
v -24 -43 0
v -24 -42 0
v -23 -42 0
v -38 -43 0
v -39 -43 0
v -39 -42 0
v -38 -42 0
v -23 -44 0
v -24 -44 0
v -24 -43 0
v -23 -43 0
v -38 -44 0
v -39 -44 0
v -39 -43 0
v -38 -43 0
v -23 -45 0
v -24 -45 0
v -24 -44 0
v -23 -44 0
v -38 -45 0
v -39 -45 0
v -39 -44 0
v -38 -44 0
v -23 -46 0
v -24 -46 0
v -24 -45 0
v -23 -45 0
v -38 -46 0
v -39 -46 0
v -39 -45 0
v -38 -45 0
v -23 -47 0
v -24 -47 0
v -24 -46 0
v -23 -46 0
v -38 -47 0
v -39 -47 0
v -39 -46 0
v -38 -46 0
v -23 -48 0
v -24 -48 0
v -24 -47 0
v -23 -47 0
v -38 -48 0
v -39 -48 0
v -39 -47 0
v -38 -47 0
v -23 -49 0
v -24 -49 0
v -24 -48 0
v -23 -48 0
v -38 -49 0
v -39 -49 0
v -39 -48 0
v -38 -48 0

# Texture cooridinates (Count = 32)
vt 0.1580579 0.743346
vt 0.1745868 0.743346
vt 0.1745868 0.7737643
vt 0.1580579 0.7737643
vt 0.1580579 0.7110266
vt 0.1745868 0.7110266
vt 0.1745868 0.7414448
vt 0.1580579 0.7414448
vt 0.1053719 0.743346
vt 0.1219008 0.743346
vt 0.1219008 0.7737643
vt 0.1053719 0.7737643
vt 0.1229339 0.743346
vt 0.1394628 0.743346
vt 0.1394628 0.7737643
vt 0.1229339 0.7737643
vt 0.08780992 0.5817491
vt 0.1043388 0.5817491
vt 0.1043388 0.6121673
vt 0.08780992 0.6121673
vt 0.1053719 0.7110266
vt 0.1219008 0.7110266
vt 0.1219008 0.7414448
vt 0.1053719 0.7414448
vt 0.08780992 0.743346
vt 0.1043388 0.743346
vt 0.1043388 0.7737643
vt 0.08780992 0.7737643
vt 0.1580579 0.6140684
vt 0.1745868 0.6140684
vt 0.1745868 0.6444867
vt 0.1580579 0.6444867

# Normal
vn 0 0 -1

# Mesh description
g fazendamap_mesh_0005

# Faces
f 1/1/1 2/2/1 3/3/1 4/4/1
f 5/1/1 6/2/1 7/3/1 8/4/1
f 9/1/1 10/2/1 11/3/1 12/4/1
f 13/1/1 14/2/1 15/3/1 16/4/1
f 17/5/1 18/6/1 19/7/1 20/8/1
f 21/5/1 22/6/1 23/7/1 24/8/1
f 25/9/1 26/10/1 27/11/1 28/12/1
f 29/1/1 30/2/1 31/3/1 32/4/1
f 33/1/1 34/2/1 35/3/1 36/4/1
f 37/1/1 38/2/1 39/3/1 40/4/1
f 41/1/1 42/2/1 43/3/1 44/4/1
f 45/1/1 46/2/1 47/3/1 48/4/1
f 49/1/1 50/2/1 51/3/1 52/4/1
f 53/1/1 54/2/1 55/3/1 56/4/1
f 57/1/1 58/2/1 59/3/1 60/4/1
f 61/1/1 62/2/1 63/3/1 64/4/1
f 65/1/1 66/2/1 67/3/1 68/4/1
f 69/1/1 70/2/1 71/3/1 72/4/1
f 73/1/1 74/2/1 75/3/1 76/4/1
f 77/13/1 78/14/1 79/15/1 80/16/1
f 81/5/1 82/6/1 83/7/1 84/8/1
f 85/5/1 86/6/1 87/7/1 88/8/1
f 89/17/1 90/18/1 91/19/1 92/20/1
f 93/1/1 94/2/1 95/3/1 96/4/1
f 97/1/1 98/2/1 99/3/1 100/4/1
f 101/1/1 102/2/1 103/3/1 104/4/1
f 105/1/1 106/2/1 107/3/1 108/4/1
f 109/13/1 110/14/1 111/15/1 112/16/1
f 113/5/1 114/6/1 115/7/1 116/8/1
f 117/5/1 118/6/1 119/7/1 120/8/1
f 121/21/1 122/22/1 123/23/1 124/24/1
f 125/5/1 126/6/1 127/7/1 128/8/1
f 129/5/1 130/6/1 131/7/1 132/8/1
f 133/5/1 134/6/1 135/7/1 136/8/1
f 137/5/1 138/6/1 139/7/1 140/8/1
f 141/5/1 142/6/1 143/7/1 144/8/1
f 145/5/1 146/6/1 147/7/1 148/8/1
f 149/5/1 150/6/1 151/7/1 152/8/1
f 153/5/1 154/6/1 155/7/1 156/8/1
f 157/1/1 158/2/1 159/3/1 160/4/1
f 161/1/1 162/2/1 163/3/1 164/4/1
f 165/1/1 166/2/1 167/3/1 168/4/1
f 169/1/1 170/2/1 171/3/1 172/4/1
f 173/1/1 174/2/1 175/3/1 176/4/1
f 177/1/1 178/2/1 179/3/1 180/4/1
f 181/1/1 182/2/1 183/3/1 184/4/1
f 185/1/1 186/2/1 187/3/1 188/4/1
f 189/1/1 190/2/1 191/3/1 192/4/1
f 193/1/1 194/2/1 195/3/1 196/4/1
f 197/1/1 198/2/1 199/3/1 200/4/1
f 201/1/1 202/2/1 203/3/1 204/4/1
f 205/1/1 206/2/1 207/3/1 208/4/1
f 209/1/1 210/2/1 211/3/1 212/4/1
f 213/1/1 214/2/1 215/3/1 216/4/1
f 217/1/1 218/2/1 219/3/1 220/4/1
f 221/13/1 222/14/1 223/15/1 224/16/1
f 225/21/1 226/22/1 227/23/1 228/24/1
f 229/5/1 230/6/1 231/7/1 232/8/1
f 233/5/1 234/6/1 235/7/1 236/8/1
f 237/5/1 238/6/1 239/7/1 240/8/1
f 241/5/1 242/6/1 243/7/1 244/8/1
f 245/5/1 246/6/1 247/7/1 248/8/1
f 249/21/1 250/22/1 251/23/1 252/24/1
f 253/5/1 254/6/1 255/7/1 256/8/1
f 257/5/1 258/6/1 259/7/1 260/8/1
f 261/5/1 262/6/1 263/7/1 264/8/1
f 265/21/1 266/22/1 267/23/1 268/24/1
f 269/5/1 270/6/1 271/7/1 272/8/1
f 273/5/1 274/6/1 275/7/1 276/8/1
f 277/5/1 278/6/1 279/7/1 280/8/1
f 281/25/1 282/26/1 283/27/1 284/28/1
f 285/5/1 286/6/1 287/7/1 288/8/1
f 289/5/1 290/6/1 291/7/1 292/8/1
f 293/5/1 294/6/1 295/7/1 296/8/1
f 297/29/1 298/30/1 299/31/1 300/32/1
f 301/1/1 302/2/1 303/3/1 304/4/1
f 305/1/1 306/2/1 307/3/1 308/4/1
f 309/1/1 310/2/1 311/3/1 312/4/1
f 313/1/1 314/2/1 315/3/1 316/4/1
f 317/1/1 318/2/1 319/3/1 320/4/1
f 321/1/1 322/2/1 323/3/1 324/4/1
f 325/1/1 326/2/1 327/3/1 328/4/1
f 329/1/1 330/2/1 331/3/1 332/4/1
f 333/1/1 334/2/1 335/3/1 336/4/1
f 337/1/1 338/2/1 339/3/1 340/4/1
f 341/1/1 342/2/1 343/3/1 344/4/1
f 345/1/1 346/2/1 347/3/1 348/4/1
f 349/1/1 350/2/1 351/3/1 352/4/1
f 353/1/1 354/2/1 355/3/1 356/4/1
f 357/9/1 358/10/1 359/11/1 360/12/1
f 361/1/1 362/2/1 363/3/1 364/4/1

