# Tiled2Unity generated file. Do not modify by hand.
# Wavefront file for 'fazendamap_mesh_0007.obj'

# Vertices (Count = 96)
v -42 -15 0
v -43 -15 0
v -43 -14 0
v -42 -14 0
v -38 -16 0
v -39 -16 0
v -39 -15 0
v -38 -15 0
v -39 -16 0
v -40 -16 0
v -40 -15 0
v -39 -15 0
v -48 -16 0
v -49 -16 0
v -49 -15 0
v -48 -15 0
v -35 -18 0
v -36 -18 0
v -36 -17 0
v -35 -17 0
v -36 -18 0
v -37 -18 0
v -37 -17 0
v -36 -17 0
v -40 -18 0
v -41 -18 0
v -41 -17 0
v -40 -17 0
v -41 -18 0
v -42 -18 0
v -42 -17 0
v -41 -17 0
v -33 -21 0
v -34 -21 0
v -34 -20 0
v -33 -20 0
v -43 -21 0
v -44 -21 0
v -44 -20 0
v -43 -20 0
v -46 -21 0
v -47 -21 0
v -47 -20 0
v -46 -20 0
v -48 -24 0
v -49 -24 0
v -49 -23 0
v -48 -23 0
v -40 -29 0
v -41 -29 0
v -41 -28 0
v -40 -28 0
v -37 -34 0
v -38 -34 0
v -38 -33 0
v -37 -33 0
v -50 -35 0
v -51 -35 0
v -51 -34 0
v -50 -34 0
v -37 -37 0
v -38 -37 0
v -38 -36 0
v -37 -36 0
v -25 -38 0
v -26 -38 0
v -26 -37 0
v -25 -37 0
v -32 -38 0
v -33 -38 0
v -33 -37 0
v -32 -37 0
v -38 -38 0
v -39 -38 0
v -39 -37 0
v -38 -37 0
v -25 -39 0
v -26 -39 0
v -26 -38 0
v -25 -38 0
v -32 -39 0
v -33 -39 0
v -33 -38 0
v -32 -38 0
v -41 -44 0
v -42 -44 0
v -42 -43 0
v -41 -43 0
v -44 -44 0
v -45 -44 0
v -45 -43 0
v -44 -43 0
v -52 -44 0
v -53 -44 0
v -53 -43 0
v -52 -43 0

# Texture cooridinates (Count = 28)
vt 0.4039256 0.6463878
vt 0.4204545 0.6463878
vt 0.4204545 0.6768061
vt 0.4039256 0.6768061
vt 0.8078513 0.6463878
vt 0.8243802 0.6463878
vt 0.8243802 0.6768061
vt 0.8078513 0.6768061
vt 0.8254132 0.6463878
vt 0.8419421 0.6463878
vt 0.8419421 0.6768061
vt 0.8254132 0.6768061
vt 0.2283058 0.6463878
vt 0.2448347 0.6463878
vt 0.2448347 0.6768061
vt 0.2283058 0.6768061
vt 0.2809917 0.6463878
vt 0.2975207 0.6463878
vt 0.2975207 0.6768061
vt 0.2809917 0.6768061
vt 0.5971074 0.3231939
vt 0.6136364 0.3231939
vt 0.6136364 0.3536122
vt 0.5971074 0.3536122
vt 0.6146694 0.3555133
vt 0.6311983 0.3555133
vt 0.6311983 0.3859316
vt 0.6146694 0.3859316

# Normal
vn 0 0 -1

# Mesh description
g fazendamap_mesh_0007

# Faces
f 1/1/1 2/2/1 3/3/1 4/4/1
f 5/5/1 6/6/1 7/7/1 8/8/1
f 9/9/1 10/10/1 11/11/1 12/12/1
f 13/13/1 14/14/1 15/15/1 16/16/1
f 17/5/1 18/6/1 19/7/1 20/8/1
f 21/9/1 22/10/1 23/11/1 24/12/1
f 25/5/1 26/6/1 27/7/1 28/8/1
f 29/9/1 30/10/1 31/11/1 32/12/1
f 33/13/1 34/14/1 35/15/1 36/16/1
f 37/13/1 38/14/1 39/15/1 40/16/1
f 41/13/1 42/14/1 43/15/1 44/16/1
f 45/13/1 46/14/1 47/15/1 48/16/1
f 49/13/1 50/14/1 51/15/1 52/16/1
f 53/13/1 54/14/1 55/15/1 56/16/1
f 57/17/1 58/18/1 59/19/1 60/20/1
f 61/13/1 62/14/1 63/15/1 64/16/1
f 65/21/1 66/22/1 67/23/1 68/24/1
f 69/21/1 70/22/1 71/23/1 72/24/1
f 73/1/1 74/2/1 75/3/1 76/4/1
f 77/25/1 78/26/1 79/27/1 80/28/1
f 81/25/1 82/26/1 83/27/1 84/28/1
f 85/17/1 86/18/1 87/19/1 88/20/1
f 89/17/1 90/18/1 91/19/1 92/20/1
f 93/17/1 94/18/1 95/19/1 96/20/1

