# Tiled2Unity generated file. Do not modify by hand.
# Wavefront file for 'fazendamap_mesh_0003.obj'

# Vertices (Count = 500)
v -37 -15 0
v -38 -15 0
v -38 -14 0
v -37 -14 0
v -38 -15 0
v -39 -15 0
v -39 -14 0
v -38 -14 0
v -39 -15 0
v -40 -15 0
v -40 -14 0
v -39 -14 0
v -40 -15 0
v -41 -15 0
v -41 -14 0
v -40 -14 0
v -41 -15 0
v -42 -15 0
v -42 -14 0
v -41 -14 0
v -38 -16 0
v -39 -16 0
v -39 -15 0
v -38 -15 0
v -39 -16 0
v -40 -16 0
v -40 -15 0
v -39 -15 0
v -40 -16 0
v -41 -16 0
v -41 -15 0
v -40 -15 0
v -41 -16 0
v -42 -16 0
v -42 -15 0
v -41 -15 0
v -36 -17 0
v -37 -17 0
v -37 -16 0
v -36 -16 0
v -37 -17 0
v -38 -17 0
v -38 -16 0
v -37 -16 0
v -38 -17 0
v -39 -17 0
v -39 -16 0
v -38 -16 0
v -39 -17 0
v -40 -17 0
v -40 -16 0
v -39 -16 0
v -40 -17 0
v -41 -17 0
v -41 -16 0
v -40 -16 0
v -41 -17 0
v -42 -17 0
v -42 -16 0
v -41 -16 0
v -42 -17 0
v -43 -17 0
v -43 -16 0
v -42 -16 0
v -34 -18 0
v -35 -18 0
v -35 -17 0
v -34 -17 0
v -35 -18 0
v -36 -18 0
v -36 -17 0
v -35 -17 0
v -36 -18 0
v -37 -18 0
v -37 -17 0
v -36 -17 0
v -37 -18 0
v -38 -18 0
v -38 -17 0
v -37 -17 0
v -38 -18 0
v -39 -18 0
v -39 -17 0
v -38 -17 0
v -39 -18 0
v -40 -18 0
v -40 -17 0
v -39 -17 0
v -40 -18 0
v -41 -18 0
v -41 -17 0
v -40 -17 0
v -41 -18 0
v -42 -18 0
v -42 -17 0
v -41 -17 0
v -42 -18 0
v -43 -18 0
v -43 -17 0
v -42 -17 0
v -34 -19 0
v -35 -19 0
v -35 -18 0
v -34 -18 0
v -35 -19 0
v -36 -19 0
v -36 -18 0
v -35 -18 0
v -36 -19 0
v -37 -19 0
v -37 -18 0
v -36 -18 0
v -37 -19 0
v -38 -19 0
v -38 -18 0
v -37 -18 0
v -38 -19 0
v -39 -19 0
v -39 -18 0
v -38 -18 0
v -39 -19 0
v -40 -19 0
v -40 -18 0
v -39 -18 0
v -40 -19 0
v -41 -19 0
v -41 -18 0
v -40 -18 0
v -41 -19 0
v -42 -19 0
v -42 -18 0
v -41 -18 0
v -42 -19 0
v -43 -19 0
v -43 -18 0
v -42 -18 0
v -50 -19 0
v -51 -19 0
v -51 -18 0
v -50 -18 0
v -51 -19 0
v -52 -19 0
v -52 -18 0
v -51 -18 0
v -52 -19 0
v -53 -19 0
v -53 -18 0
v -52 -18 0
v -53 -19 0
v -54 -19 0
v -54 -18 0
v -53 -18 0
v -54 -19 0
v -55 -19 0
v -55 -18 0
v -54 -18 0
v -30 -20 0
v -31 -20 0
v -31 -19 0
v -30 -19 0
v -34 -20 0
v -35 -20 0
v -35 -19 0
v -34 -19 0
v -35 -20 0
v -36 -20 0
v -36 -19 0
v -35 -19 0
v -36 -20 0
v -37 -20 0
v -37 -19 0
v -36 -19 0
v -37 -20 0
v -38 -20 0
v -38 -19 0
v -37 -19 0
v -38 -20 0
v -39 -20 0
v -39 -19 0
v -38 -19 0
v -39 -20 0
v -40 -20 0
v -40 -19 0
v -39 -19 0
v -40 -20 0
v -41 -20 0
v -41 -19 0
v -40 -19 0
v -41 -20 0
v -42 -20 0
v -42 -19 0
v -41 -19 0
v -50 -20 0
v -51 -20 0
v -51 -19 0
v -50 -19 0
v -51 -20 0
v -52 -20 0
v -52 -19 0
v -51 -19 0
v -52 -20 0
v -53 -20 0
v -53 -19 0
v -52 -19 0
v -53 -20 0
v -54 -20 0
v -54 -19 0
v -53 -19 0
v -54 -20 0
v -55 -20 0
v -55 -19 0
v -54 -19 0
v -36 -21 0
v -37 -21 0
v -37 -20 0
v -36 -20 0
v -37 -21 0
v -38 -21 0
v -38 -20 0
v -37 -20 0
v -38 -21 0
v -39 -21 0
v -39 -20 0
v -38 -20 0
v -39 -21 0
v -40 -21 0
v -40 -20 0
v -39 -20 0
v -40 -21 0
v -41 -21 0
v -41 -20 0
v -40 -20 0
v -50 -21 0
v -51 -21 0
v -51 -20 0
v -50 -20 0
v -51 -21 0
v -52 -21 0
v -52 -20 0
v -51 -20 0
v -52 -21 0
v -53 -21 0
v -53 -20 0
v -52 -20 0
v -53 -21 0
v -54 -21 0
v -54 -20 0
v -53 -20 0
v -54 -21 0
v -55 -21 0
v -55 -20 0
v -54 -20 0
v -50 -22 0
v -51 -22 0
v -51 -21 0
v -50 -21 0
v -51 -22 0
v -52 -22 0
v -52 -21 0
v -51 -21 0
v -52 -22 0
v -53 -22 0
v -53 -21 0
v -52 -21 0
v -53 -22 0
v -54 -22 0
v -54 -21 0
v -53 -21 0
v -54 -22 0
v -55 -22 0
v -55 -21 0
v -54 -21 0
v -50 -23 0
v -51 -23 0
v -51 -22 0
v -50 -22 0
v -51 -23 0
v -52 -23 0
v -52 -22 0
v -51 -22 0
v -52 -23 0
v -53 -23 0
v -53 -22 0
v -52 -22 0
v -53 -23 0
v -54 -23 0
v -54 -22 0
v -53 -22 0
v -54 -23 0
v -55 -23 0
v -55 -22 0
v -54 -22 0
v -50 -24 0
v -51 -24 0
v -51 -23 0
v -50 -23 0
v -51 -24 0
v -52 -24 0
v -52 -23 0
v -51 -23 0
v -52 -24 0
v -53 -24 0
v -53 -23 0
v -52 -23 0
v -53 -24 0
v -54 -24 0
v -54 -23 0
v -53 -23 0
v -54 -24 0
v -55 -24 0
v -55 -23 0
v -54 -23 0
v -27 -25 0
v -28 -25 0
v -28 -24 0
v -27 -24 0
v -28 -25 0
v -29 -25 0
v -29 -24 0
v -28 -24 0
v -31 -25 0
v -32 -25 0
v -32 -24 0
v -31 -24 0
v -50 -25 0
v -51 -25 0
v -51 -24 0
v -50 -24 0
v -51 -25 0
v -52 -25 0
v -52 -24 0
v -51 -24 0
v -52 -25 0
v -53 -25 0
v -53 -24 0
v -52 -24 0
v -53 -25 0
v -54 -25 0
v -54 -24 0
v -53 -24 0
v -54 -25 0
v -55 -25 0
v -55 -24 0
v -54 -24 0
v -27 -26 0
v -28 -26 0
v -28 -25 0
v -27 -25 0
v -28 -26 0
v -29 -26 0
v -29 -25 0
v -28 -25 0
v -30 -26 0
v -31 -26 0
v -31 -25 0
v -30 -25 0
v -32 -26 0
v -33 -26 0
v -33 -25 0
v -32 -25 0
v -50 -26 0
v -51 -26 0
v -51 -25 0
v -50 -25 0
v -51 -26 0
v -52 -26 0
v -52 -25 0
v -51 -25 0
v -52 -26 0
v -53 -26 0
v -53 -25 0
v -52 -25 0
v -53 -26 0
v -54 -26 0
v -54 -25 0
v -53 -25 0
v -54 -26 0
v -55 -26 0
v -55 -25 0
v -54 -25 0
v -31 -27 0
v -32 -27 0
v -32 -26 0
v -31 -26 0
v -50 -27 0
v -51 -27 0
v -51 -26 0
v -50 -26 0
v -51 -27 0
v -52 -27 0
v -52 -26 0
v -51 -26 0
v -52 -27 0
v -53 -27 0
v -53 -26 0
v -52 -26 0
v -53 -27 0
v -54 -27 0
v -54 -26 0
v -53 -26 0
v -54 -27 0
v -55 -27 0
v -55 -26 0
v -54 -26 0
v -29 -28 0
v -30 -28 0
v -30 -27 0
v -29 -27 0
v -50 -28 0
v -51 -28 0
v -51 -27 0
v -50 -27 0
v -51 -28 0
v -52 -28 0
v -52 -27 0
v -51 -27 0
v -52 -28 0
v -53 -28 0
v -53 -27 0
v -52 -27 0
v -53 -28 0
v -54 -28 0
v -54 -27 0
v -53 -27 0
v -54 -28 0
v -55 -28 0
v -55 -27 0
v -54 -27 0
v -49 -29 0
v -50 -29 0
v -50 -28 0
v -49 -28 0
v -50 -29 0
v -51 -29 0
v -51 -28 0
v -50 -28 0
v -52 -29 0
v -53 -29 0
v -53 -28 0
v -52 -28 0
v -53 -29 0
v -54 -29 0
v -54 -28 0
v -53 -28 0
v -54 -29 0
v -55 -29 0
v -55 -28 0
v -54 -28 0
v -49 -30 0
v -50 -30 0
v -50 -29 0
v -49 -29 0
v -50 -30 0
v -51 -30 0
v -51 -29 0
v -50 -29 0
v -51 -30 0
v -52 -30 0
v -52 -29 0
v -51 -29 0
v -52 -30 0
v -53 -30 0
v -53 -29 0
v -52 -29 0
v -53 -30 0
v -54 -30 0
v -54 -29 0
v -53 -29 0
v -54 -30 0
v -55 -30 0
v -55 -29 0
v -54 -29 0
v -50 -31 0
v -51 -31 0
v -51 -30 0
v -50 -30 0
v -51 -31 0
v -52 -31 0
v -52 -30 0
v -51 -30 0
v -52 -31 0
v -53 -31 0
v -53 -30 0
v -52 -30 0
v -53 -31 0
v -54 -31 0
v -54 -30 0
v -53 -30 0
v -54 -31 0
v -55 -31 0
v -55 -30 0
v -54 -30 0
v -30 -34 0
v -31 -34 0
v -31 -33 0
v -30 -33 0
v -36 -39 0
v -37 -39 0
v -37 -38 0
v -36 -38 0

# Texture cooridinates (Count = 112)
vt 0.3863636 0.6140684
vt 0.4028926 0.6140684
vt 0.4028926 0.6444867
vt 0.3863636 0.6444867
vt 0.1229339 0.6787072
vt 0.1394628 0.6787072
vt 0.1394628 0.7091255
vt 0.1229339 0.7091255
vt 0.1404959 0.6787072
vt 0.1570248 0.6787072
vt 0.1570248 0.7091255
vt 0.1404959 0.7091255
vt 0.1580579 0.6787072
vt 0.1745868 0.6787072
vt 0.1745868 0.7091255
vt 0.1580579 0.7091255
vt 0.1229339 0.6463878
vt 0.1394628 0.6463878
vt 0.1394628 0.6768061
vt 0.1229339 0.6768061
vt 0.1404959 0.6463878
vt 0.1570248 0.6463878
vt 0.1570248 0.6768061
vt 0.1404959 0.6768061
vt 0.1580579 0.6463878
vt 0.1745868 0.6463878
vt 0.1745868 0.6768061
vt 0.1580579 0.6768061
vt 0.08780992 0.6463878
vt 0.1043388 0.6463878
vt 0.1043388 0.6768061
vt 0.08780992 0.6768061
vt 0.1053719 0.6463878
vt 0.1219008 0.6463878
vt 0.1219008 0.6768061
vt 0.1053719 0.6768061
vt 0.1404959 0.6140684
vt 0.1570248 0.6140684
vt 0.1570248 0.6444867
vt 0.1404959 0.6444867
vt 0.1229339 0.4524715
vt 0.1394628 0.4524715
vt 0.1394628 0.4828897
vt 0.1229339 0.4828897
vt 0.1404959 0.4524715
vt 0.1570248 0.4524715
vt 0.1570248 0.4828897
vt 0.1404959 0.4828897
vt 0.3863636 0.6463878
vt 0.4028926 0.6463878
vt 0.4028926 0.6768061
vt 0.3863636 0.6768061
vt 0.1229339 0.6140684
vt 0.1394628 0.6140684
vt 0.1394628 0.6444867
vt 0.1229339 0.6444867
vt 0.1053719 0.6787072
vt 0.1219008 0.6787072
vt 0.1219008 0.7091255
vt 0.1053719 0.7091255
vt 0.08780992 0.6787072
vt 0.1043388 0.6787072
vt 0.1043388 0.7091255
vt 0.08780992 0.7091255
vt 0.1580579 0.6140684
vt 0.1745868 0.6140684
vt 0.1745868 0.6444867
vt 0.1580579 0.6444867
vt 0 0.6787072
vt 0.01652892 0.6787072
vt 0.01652892 0.7091255
vt 0 0.7091255
vt 0.01756198 0.6787072
vt 0.03409091 0.6787072
vt 0.03409091 0.7091255
vt 0.01756198 0.7091255
vt 0.5092975 0.6787072
vt 0.5258265 0.6787072
vt 0.5258265 0.7091255
vt 0.5092975 0.7091255
vt 0 0.6463878
vt 0.01652892 0.6463878
vt 0.01652892 0.6768061
vt 0 0.6768061
vt 0.01756198 0.6463878
vt 0.03409091 0.6463878
vt 0.03409091 0.6768061
vt 0.01756198 0.6768061
vt 0.4917355 0.6787072
vt 0.5082645 0.6787072
vt 0.5082645 0.7091255
vt 0.4917355 0.7091255
vt 0.1404959 0.4847909
vt 0.1570248 0.4847909
vt 0.1570248 0.5152091
vt 0.1404959 0.5152091
vt 0.1053719 0.4524715
vt 0.1219008 0.4524715
vt 0.1219008 0.4828897
vt 0.1053719 0.4828897
vt 0.1404959 0.4201521
vt 0.1570248 0.4201521
vt 0.1570248 0.4505703
vt 0.1404959 0.4505703
vt 0.1053719 0.4847909
vt 0.1219008 0.4847909
vt 0.1219008 0.5152091
vt 0.1053719 0.5152091
vt 0.1229339 0.4201521
vt 0.1394628 0.4201521
vt 0.1394628 0.4505703
vt 0.1229339 0.4505703

# Normal
vn 0 0 -1

# Mesh description
g fazendamap_mesh_0003

# Faces
f 1/1/1 2/2/1 3/3/1 4/4/1
f 5/5/1 6/6/1 7/7/1 8/8/1
f 9/9/1 10/10/1 11/11/1 12/12/1
f 13/9/1 14/10/1 15/11/1 16/12/1
f 17/13/1 18/14/1 19/15/1 20/16/1
f 21/17/1 22/18/1 23/19/1 24/20/1
f 25/21/1 26/22/1 27/23/1 28/24/1
f 29/21/1 30/22/1 31/23/1 32/24/1
f 33/25/1 34/26/1 35/27/1 36/28/1
f 37/5/1 38/6/1 39/7/1 40/8/1
f 41/9/1 42/10/1 43/11/1 44/12/1
f 45/21/1 46/22/1 47/23/1 48/24/1
f 49/21/1 50/22/1 51/23/1 52/24/1
f 53/21/1 54/22/1 55/23/1 56/24/1
f 57/29/1 58/30/1 59/31/1 60/32/1
f 61/13/1 62/14/1 63/15/1 64/16/1
f 65/5/1 66/6/1 67/7/1 68/8/1
f 69/9/1 70/10/1 71/11/1 72/12/1
f 73/33/1 74/34/1 75/35/1 76/36/1
f 77/21/1 78/22/1 79/23/1 80/24/1
f 81/21/1 82/22/1 83/23/1 84/24/1
f 85/21/1 86/22/1 87/23/1 88/24/1
f 89/21/1 90/22/1 91/23/1 92/24/1
f 93/21/1 94/22/1 95/23/1 96/24/1
f 97/25/1 98/26/1 99/27/1 100/28/1
f 101/17/1 102/18/1 103/19/1 104/20/1
f 105/21/1 106/22/1 107/23/1 108/24/1
f 109/21/1 110/22/1 111/23/1 112/24/1
f 113/21/1 114/22/1 115/23/1 116/24/1
f 117/21/1 118/22/1 119/23/1 120/24/1
f 121/21/1 122/22/1 123/23/1 124/24/1
f 125/21/1 126/22/1 127/23/1 128/24/1
f 129/21/1 130/22/1 131/23/1 132/24/1
f 133/37/1 134/38/1 135/39/1 136/40/1
f 137/41/1 138/42/1 139/43/1 140/44/1
f 141/45/1 142/46/1 143/47/1 144/48/1
f 145/45/1 146/46/1 147/47/1 148/48/1
f 149/45/1 150/46/1 151/47/1 152/48/1
f 153/45/1 154/46/1 155/47/1 156/48/1
f 157/49/1 158/50/1 159/51/1 160/52/1
f 161/53/1 162/54/1 163/55/1 164/56/1
f 165/37/1 166/38/1 167/39/1 168/40/1
f 169/57/1 170/58/1 171/59/1 172/60/1
f 173/21/1 174/22/1 175/23/1 176/24/1
f 177/21/1 178/22/1 179/23/1 180/24/1
f 181/21/1 182/22/1 183/23/1 184/24/1
f 185/61/1 186/62/1 187/63/1 188/64/1
f 189/65/1 190/66/1 191/67/1 192/68/1
f 193/41/1 194/42/1 195/43/1 196/44/1
f 197/45/1 198/46/1 199/47/1 200/48/1
f 201/45/1 202/46/1 203/47/1 204/48/1
f 205/45/1 206/46/1 207/47/1 208/48/1
f 209/45/1 210/46/1 211/47/1 212/48/1
f 213/53/1 214/54/1 215/55/1 216/56/1
f 217/37/1 218/38/1 219/39/1 220/40/1
f 221/37/1 222/38/1 223/39/1 224/40/1
f 225/37/1 226/38/1 227/39/1 228/40/1
f 229/65/1 230/66/1 231/67/1 232/68/1
f 233/41/1 234/42/1 235/43/1 236/44/1
f 237/45/1 238/46/1 239/47/1 240/48/1
f 241/45/1 242/46/1 243/47/1 244/48/1
f 245/45/1 246/46/1 247/47/1 248/48/1
f 249/45/1 250/46/1 251/47/1 252/48/1
f 253/41/1 254/42/1 255/43/1 256/44/1
f 257/45/1 258/46/1 259/47/1 260/48/1
f 261/45/1 262/46/1 263/47/1 264/48/1
f 265/45/1 266/46/1 267/47/1 268/48/1
f 269/45/1 270/46/1 271/47/1 272/48/1
f 273/41/1 274/42/1 275/43/1 276/44/1
f 277/45/1 278/46/1 279/47/1 280/48/1
f 281/45/1 282/46/1 283/47/1 284/48/1
f 285/45/1 286/46/1 287/47/1 288/48/1
f 289/45/1 290/46/1 291/47/1 292/48/1
f 293/41/1 294/42/1 295/43/1 296/44/1
f 297/45/1 298/46/1 299/47/1 300/48/1
f 301/45/1 302/46/1 303/47/1 304/48/1
f 305/45/1 306/46/1 307/47/1 308/48/1
f 309/45/1 310/46/1 311/47/1 312/48/1
f 313/69/1 314/70/1 315/71/1 316/72/1
f 317/73/1 318/74/1 319/75/1 320/76/1
f 321/77/1 322/78/1 323/79/1 324/80/1
f 325/41/1 326/42/1 327/43/1 328/44/1
f 329/45/1 330/46/1 331/47/1 332/48/1
f 333/45/1 334/46/1 335/47/1 336/48/1
f 337/45/1 338/46/1 339/47/1 340/48/1
f 341/45/1 342/46/1 343/47/1 344/48/1
f 345/81/1 346/82/1 347/83/1 348/84/1
f 349/85/1 350/86/1 351/87/1 352/88/1
f 353/89/1 354/90/1 355/91/1 356/92/1
f 357/77/1 358/78/1 359/79/1 360/80/1
f 361/41/1 362/42/1 363/43/1 364/44/1
f 365/45/1 366/46/1 367/47/1 368/48/1
f 369/45/1 370/46/1 371/47/1 372/48/1
f 373/45/1 374/46/1 375/47/1 376/48/1
f 377/45/1 378/46/1 379/47/1 380/48/1
f 381/89/1 382/90/1 383/91/1 384/92/1
f 385/41/1 386/42/1 387/43/1 388/44/1
f 389/45/1 390/46/1 391/47/1 392/48/1
f 393/45/1 394/46/1 395/47/1 396/48/1
f 397/45/1 398/46/1 399/47/1 400/48/1
f 401/45/1 402/46/1 403/47/1 404/48/1
f 405/77/1 406/78/1 407/79/1 408/80/1
f 409/41/1 410/42/1 411/43/1 412/44/1
f 413/45/1 414/46/1 415/47/1 416/48/1
f 417/45/1 418/46/1 419/47/1 420/48/1
f 421/45/1 422/46/1 423/47/1 424/48/1
f 425/45/1 426/46/1 427/47/1 428/48/1
f 429/93/1 430/94/1 431/95/1 432/96/1
f 433/97/1 434/98/1 435/99/1 436/100/1
f 437/45/1 438/46/1 439/47/1 440/48/1
f 441/45/1 442/46/1 443/47/1 444/48/1
f 445/45/1 446/46/1 447/47/1 448/48/1
f 449/101/1 450/102/1 451/103/1 452/104/1
f 453/105/1 454/106/1 455/107/1 456/108/1
f 457/45/1 458/46/1 459/47/1 460/48/1
f 461/45/1 462/46/1 463/47/1 464/48/1
f 465/45/1 466/46/1 467/47/1 468/48/1
f 469/45/1 470/46/1 471/47/1 472/48/1
f 473/109/1 474/110/1 475/111/1 476/112/1
f 477/101/1 478/102/1 479/103/1 480/104/1
f 481/101/1 482/102/1 483/103/1 484/104/1
f 485/101/1 486/102/1 487/103/1 488/104/1
f 489/101/1 490/102/1 491/103/1 492/104/1
f 493/49/1 494/50/1 495/51/1 496/52/1
f 497/49/1 498/50/1 499/51/1 500/52/1

